<svg width="1085" height="120" viewBox="0 0 1085 120" fill="none" xmlns="http://www.w3.org/2000/svg">
<g clip-path="url(#clip0_8026_119568)">
<path d="M43.5124 120C28.9005 111.575 14.6899 103.382 0.147084 94.9969C3.53716 93.8185 4.07309 91.4856 4.06118 88.5701C3.98318 69.4648 4.00044 50.3595 4.04689 31.2542C4.05344 28.4959 3.64196 26.1404 0 25.0734C6.64319 21.2446 12.7808 17.7077 19.477 13.8485C19.477 16.1183 19.477 17.7154 19.477 19.3126C19.4931 42.1734 19.4931 65.0647 19.4931 87.9094C19.4681 91.3969 20.3863 93.2133 23.5162 94.9617C26.0446 96.3748 26.4239 96.5053 28.358 97.5901C28.358 96.0216 28.3687 95.066 28.358 93.9567C28.358 66.6577 28.4116 39.7452 28.358 11.935C28.3515 9.62354 28.8779 8.21343 31.0043 7.11311C35.1275 4.98037 39.091 2.53903 43.5124 0V120Z" fill="#33CC99"/>
<path d="M53.0908 120C67.7033 111.575 81.9133 103.382 96.4562 94.9969C93.0661 93.8185 92.5302 91.4856 92.5421 88.5701C92.6201 69.4648 92.6028 50.3595 92.5564 31.2542C92.5498 28.4959 92.9613 26.1404 96.6032 25.0734C89.9601 21.2446 83.8224 17.7077 77.1262 13.8485C77.1262 16.1183 77.1262 17.7154 77.1262 19.3126C77.1102 42.1734 77.1102 65.0647 77.1102 87.9094C77.1352 91.3969 76.2169 93.2133 73.0871 94.9617C70.5587 96.3748 70.1794 96.5053 68.2452 97.5901C68.2452 96.0216 68.2345 95.066 68.2452 93.9567C68.2452 66.6577 68.1916 39.7452 68.2452 11.935C68.2518 9.62354 67.7254 8.21343 65.5989 7.11311C61.4758 4.98037 57.5123 2.53903 53.0908 0V120V120Z" fill="url(#paint0_linear_8026_119568)"/>
<path d="M60.6589 8.45605L62.3602 11.9048L66.1642 12.4576L63.4118 15.142L64.0615 18.9321L60.6589 17.1425L57.2569 18.9321L57.9066 15.142L55.1543 12.4576L58.9582 11.9048L60.6589 8.45605Z" fill="white"/>
</g>
<path d="M195.977 80.4531C195.977 89.3594 193.008 96.2148 187.07 101.02C181.602 105.473 174.258 107.699 165.039 107.699C155.625 107.699 148.047 105.355 142.305 100.668C136.094 95.668 132.988 88.5977 132.988 79.457V76.5859H155.547C155.547 79.8672 156.27 82.6211 157.715 84.8477C159.355 87.4258 161.719 88.7148 164.805 88.7148C170.547 88.7148 173.418 85.8828 173.418 80.2188C173.418 77.6406 172.422 75.5508 170.43 73.9492C169.648 73.3242 168.633 72.6992 167.383 72.0742L165.684 71.2539L156.016 67.0938C152.812 65.7656 150.059 64.418 147.754 63.0508C145.02 61.4492 142.715 59.7109 140.84 57.8359C136.504 53.4219 134.336 48.0312 134.336 41.6641C134.336 33.8125 137.617 27.3867 144.18 22.3867C150.195 17.8164 157.266 15.5312 165.391 15.5312C169.961 15.5312 174.336 16.3516 178.516 17.9922C183.047 19.7891 186.68 22.3281 189.414 25.6094C193.086 30.1406 195.039 35.9805 195.273 43.1289H172.832C171.973 37.3477 169.258 34.457 164.688 34.457C159.492 34.457 156.895 36.7813 156.895 41.4297C156.895 43.0703 157.168 44.3203 157.715 45.1797C158.613 46.7031 161.328 48.5781 165.859 50.8047L175.234 55.0234C178.516 56.5078 181.25 57.9336 183.438 59.3008C186.094 60.9414 188.281 62.6797 190 64.5156C193.984 68.7344 195.977 74.0469 195.977 80.4531ZM274.609 72.6602C274.609 82.8164 271.172 91.2539 264.297 97.9727C257.461 104.691 248.926 108.051 238.691 108.051C228.457 108.051 219.941 104.691 213.145 97.9727C206.27 91.2539 202.832 82.8164 202.832 72.6602C202.832 62.4648 206.27 54.0078 213.145 47.2891C219.941 40.5703 228.457 37.2109 238.691 37.2109C248.926 37.2109 257.461 40.5703 264.297 47.2891C271.172 54.0078 274.609 62.4648 274.609 72.6602ZM254.688 72.6602C254.688 68.0508 253.184 64.125 250.176 60.8828C247.09 57.5234 243.262 55.8438 238.691 55.8438C234.16 55.8438 230.352 57.5234 227.266 60.8828C224.258 64.125 222.754 68.0508 222.754 72.6602C222.754 77.2305 224.258 81.1562 227.266 84.4375C230.352 87.7578 234.16 89.418 238.691 89.418C243.262 89.418 247.09 87.7578 250.176 84.4375C253.184 81.1562 254.688 77.2305 254.688 72.6602ZM285.859 106V17.1719H305.781V106H285.859ZM370.234 106V98.793H370C368.32 101.996 365.527 104.438 361.621 106.117C358.262 107.562 354.57 108.285 350.547 108.285C340.508 108.285 332.363 104.828 326.113 97.9141C320.098 91.1953 317.09 82.7773 317.09 72.6602C317.09 62.6992 320.156 54.3398 326.289 47.582C332.656 40.5898 340.742 37.0938 350.547 37.0938C354.531 37.0938 358.203 37.8359 361.562 39.3203C365.312 40.9609 368.125 43.3438 370 46.4688H370.234V39.3789H390.156V106H370.234ZM370.234 72.6602C370.234 67.7773 368.652 63.7344 365.488 60.5312C362.324 57.3281 358.32 55.7266 353.477 55.7266C348.672 55.7266 344.707 57.4062 341.582 60.7656C338.535 64.0078 337.012 68.0508 337.012 72.8945C337.012 77.543 338.594 81.4883 341.758 84.7305C345 88.0117 348.945 89.6523 353.594 89.6523C358.398 89.6523 362.383 88.0312 365.547 84.7891C368.672 81.5469 370.234 77.5039 370.234 72.6602ZM440.195 57.1328C435.078 57.2891 431.367 58.0703 429.062 59.4766C426.016 61.3516 424.492 64.6523 424.492 69.3789V106H404.57V39.3789H423.262V46.4688H423.555C426.719 40.2187 432.266 37.0938 440.195 37.0938V57.1328ZM448.281 32.3477V17.1719H468.203V32.3477H448.281ZM448.281 106V39.3789H468.203V106H448.281ZM532.598 85.6094C532.598 92.6797 529.766 98.3242 524.102 102.543C518.984 106.371 512.773 108.285 505.469 108.285C498.203 108.285 492.129 106.43 487.246 102.719C482.051 98.7734 479.082 93.2656 478.34 86.1953H498.145C498.73 90.2969 501.25 92.3477 505.703 92.3477C507.422 92.3477 508.965 91.918 510.332 91.0586C511.895 90.082 512.676 88.7734 512.676 87.1328C512.676 85.0625 511.621 83.3633 509.512 82.0352L506.582 80.6289L495.039 76.4688C490.391 74.7891 486.758 72.6992 484.141 70.1992C480.82 67.0742 479.16 63.3633 479.16 59.0664C479.16 52.4648 481.855 47.0742 487.246 42.8945C492.207 39.0273 498.125 37.0938 505 37.0938C511.992 37.0938 517.754 38.832 522.285 42.3086C527.168 46.0195 529.922 51.293 530.547 58.1289H510.977C510.859 54.7695 508.789 53.0898 504.766 53.0898C500.977 53.0898 499.082 54.5742 499.082 57.543C499.082 59.7695 500.84 61.5859 504.355 62.9922C505.527 63.5 507.305 64.1055 509.688 64.8086C509.883 64.8477 510.137 64.9062 510.449 64.9844L515.84 66.6836C518.223 67.4648 520.273 68.2852 521.992 69.1445C524.102 70.1992 525.879 71.4102 527.324 72.7773C530.84 76.0195 532.598 80.2969 532.598 85.6094ZM653.242 106L653.945 39.4961L653.711 39.2617L634.785 106H619.785L600.801 39.2617L600.566 39.4961L601.27 106H580.41V17.1719H609.59L627.227 75.6484H627.461L644.863 17.1719H674.102V106H653.242ZM739.375 106V98.793H739.141C737.461 101.996 734.668 104.438 730.762 106.117C727.402 107.562 723.711 108.285 719.688 108.285C709.648 108.285 701.504 104.828 695.254 97.9141C689.238 91.1953 686.23 82.7773 686.23 72.6602C686.23 62.6992 689.297 54.3398 695.43 47.582C701.797 40.5898 709.883 37.0938 719.688 37.0938C723.672 37.0938 727.344 37.8359 730.703 39.3203C734.453 40.9609 737.266 43.3438 739.141 46.4688H739.375V39.3789H759.297V106H739.375ZM739.375 72.6602C739.375 67.7773 737.793 63.7344 734.629 60.5312C731.465 57.3281 727.461 55.7266 722.617 55.7266C717.812 55.7266 713.848 57.4062 710.723 60.7656C707.676 64.0078 706.152 68.0508 706.152 72.8945C706.152 77.543 707.734 81.4883 710.898 84.7305C714.141 88.0117 718.086 89.6523 722.734 89.6523C727.539 89.6523 731.523 88.0312 734.688 84.7891C737.812 81.5469 739.375 77.5039 739.375 72.6602ZM773.828 32.3477V17.1719H793.75V32.3477H773.828ZM773.828 106V39.3789H793.75V106H773.828ZM849.941 106V69.6133C849.941 65.2773 849.316 62.0547 848.066 59.9453C846.465 57.2109 843.613 55.8438 839.512 55.8438C835.176 55.8438 832.109 57.1719 830.312 59.8281C828.828 62.0156 828.086 65.3359 828.086 69.7891V106H808.164V39.3789H826.738V46.4688H827.031C830.859 40.2187 836.895 37.0938 845.137 37.0938C851.895 37.0938 857.578 39.0273 862.188 42.8945C865.078 45.3164 867.148 48.5781 868.398 52.6797C869.375 55.8828 869.863 59.7695 869.863 64.3398V106H849.941ZM925.762 106V69.6133C925.762 65.2773 925.137 62.0547 923.887 59.9453C922.285 57.2109 919.434 55.8438 915.332 55.8438C910.996 55.8438 907.93 57.1719 906.133 59.8281C904.648 62.0156 903.906 65.3359 903.906 69.7891V106H883.984V39.3789H902.559V46.4688H902.852C906.68 40.2187 912.715 37.0938 920.957 37.0938C927.715 37.0938 933.398 39.0273 938.008 42.8945C940.898 45.3164 942.969 48.5781 944.219 52.6797C945.195 55.8828 945.684 59.7695 945.684 64.3398V106H925.762ZM1026.31 73.4805C1026.31 75.3945 1026.15 77.1523 1025.84 78.7539H975.918C977.168 87.1523 982.363 91.3516 991.504 91.3516C996.27 91.3516 1000.31 89.2812 1003.63 85.1406H1024.02C1021.05 92.0547 1016.8 97.5625 1011.25 101.664C1005.35 106 998.77 108.168 991.504 108.168C981.777 108.168 973.477 104.711 966.602 97.7969C959.688 90.9219 956.23 82.6211 956.23 72.8945C956.23 63.1289 959.609 54.75 966.367 47.7578C973.203 40.6484 981.465 37.0938 991.152 37.0938C1001.23 37.0938 1009.65 40.6484 1016.41 47.7578C1023.01 54.75 1026.31 63.3242 1026.31 73.4805ZM1006.39 65.3359C1004.75 57.7188 999.707 53.9102 991.27 53.9102C982.832 53.9102 977.793 57.7188 976.152 65.3359H1006.39ZM1061.29 54.4961V106H1041.37V54.4961H1031.52V39.3789H1041.37V17.1719H1061.29V39.3789H1070.9V54.4961H1061.29Z" fill="#20B486"/>
<defs>
<linearGradient id="paint0_linear_8026_119568" x1="53.0908" y1="59.9997" x2="96.6032" y2="59.9997" gradientUnits="userSpaceOnUse">
<stop stop-color="#07806D"/>
<stop offset="1" stop-color="#035663"/>
</linearGradient>
<clipPath id="clip0_8026_119568">
<rect width="97" height="120" fill="white"/>
</clipPath>
</defs>
</svg>
