<svg width="521" height="120" viewBox="0 0 521 120" fill="none" xmlns="http://www.w3.org/2000/svg">
<g clip-path="url(#clip0_7685_9370)">
<path d="M43.5124 120C28.9005 111.575 14.6899 103.382 0.147084 94.9969C3.53716 93.8185 4.07309 91.4856 4.06118 88.5701C3.98318 69.4648 4.00044 50.3595 4.04689 31.2542C4.05344 28.4959 3.64196 26.1404 0 25.0734C6.64319 21.2446 12.7808 17.7077 19.477 13.8485C19.477 16.1183 19.477 17.7154 19.477 19.3126C19.4931 42.1734 19.4931 65.0647 19.4931 87.9094C19.4681 91.3969 20.3863 93.2133 23.5162 94.9617C26.0446 96.3748 26.4239 96.5053 28.358 97.5901C28.358 96.0216 28.3687 95.066 28.358 93.9567C28.358 66.6577 28.4116 39.7452 28.358 11.935C28.3515 9.62354 28.8779 8.21343 31.0043 7.11311C35.1274 4.98037 39.091 2.53903 43.5124 0V120Z" fill="#33CC99"/>
<path d="M53.0908 120C67.7033 111.575 81.9133 103.382 96.4562 94.9969C93.0661 93.8185 92.5302 91.4856 92.5421 88.5701C92.6201 69.4648 92.6028 50.3595 92.5564 31.2542C92.5498 28.4959 92.9613 26.1404 96.6032 25.0734C89.9601 21.2446 83.8224 17.7077 77.1262 13.8485C77.1262 16.1183 77.1262 17.7154 77.1262 19.3126C77.1102 42.1734 77.1102 65.0647 77.1102 87.9094C77.1352 91.3969 76.2169 93.2133 73.0871 94.9617C70.5587 96.3748 70.1794 96.5053 68.2452 97.5901C68.2452 96.0216 68.2345 95.066 68.2452 93.9567C68.2452 66.6577 68.1916 39.7452 68.2452 11.935C68.2518 9.62354 67.7254 8.21343 65.5989 7.11311C61.4758 4.98037 57.5123 2.53903 53.0908 0V120Z" fill="url(#paint0_linear_7685_9370)"/>
<path d="M60.6589 8.45605L62.3602 11.9048L66.1642 12.4576L63.4118 15.142L64.0615 18.9321L60.6589 17.1425L57.2569 18.9321L57.9066 15.142L55.1543 12.4576L58.9582 11.9048L60.6589 8.45605Z" fill="white"/>
</g>
<path d="M143.343 83L129.256 60.4902L129.134 60.5391L129.402 83H120.345V45.9883H128.499L142.806 69.2549L142.903 69.1572L142.488 45.9883H151.546V83H143.343ZM185.628 69.4502C185.628 70.2477 185.563 70.9801 185.433 71.6475H164.632C165.153 75.1468 167.317 76.8965 171.126 76.8965C173.112 76.8965 174.796 76.0339 176.18 74.3086H184.676C183.439 77.1895 181.665 79.4844 179.354 81.1934C176.896 83 174.153 83.9033 171.126 83.9033C167.073 83.9033 163.615 82.4629 160.75 79.582C157.869 76.7174 156.429 73.2588 156.429 69.2061C156.429 65.137 157.837 61.6458 160.652 58.7324C163.501 55.7702 166.943 54.2891 170.979 54.2891C175.179 54.2891 178.686 55.7702 181.502 58.7324C184.253 61.6458 185.628 65.2184 185.628 69.4502ZM177.327 66.0566C176.644 62.8828 174.544 61.2959 171.028 61.2959C167.513 61.2959 165.413 62.8828 164.729 66.0566H177.327ZM220.247 68.9619C220.247 73.2425 218.994 76.7826 216.487 79.582C213.883 82.4954 210.465 83.9521 206.233 83.9521C204.655 83.9521 203.157 83.6429 201.741 83.0244C200.114 82.3083 198.966 81.3154 198.299 80.0459H198.201V83H190.242V45.9883H198.543V57.4385C200.512 55.3389 203.198 54.2891 206.6 54.2891C208.536 54.2891 210.481 54.7448 212.435 55.6562C215.039 56.8607 217.008 58.6673 218.343 61.0762C219.612 63.3385 220.247 65.9671 220.247 68.9619ZM211.946 69.1084C211.946 67.1715 211.295 65.5195 209.993 64.1523C208.675 62.7526 207.055 62.0527 205.135 62.0527C203.182 62.0527 201.538 62.7282 200.203 64.0791C198.901 65.43 198.25 67.0902 198.25 69.0596C198.25 71.0615 198.868 72.7461 200.105 74.1133C201.375 75.4967 203.003 76.1885 204.988 76.1885C206.974 76.1885 208.634 75.5049 209.969 74.1377C211.287 72.7705 211.946 71.0941 211.946 69.1084ZM242.757 83V80.0459H242.659C241.976 81.4619 240.983 82.4792 239.681 83.0977C238.558 83.6348 237.15 83.9033 235.457 83.9033C231.925 83.9033 229.207 82.7396 227.303 80.4121C226.261 79.11 225.569 77.7591 225.228 76.3594C224.951 75.3014 224.812 73.7959 224.812 71.8428V55.2412H233.113V70.5977C233.113 72.388 233.39 73.7064 233.943 74.5527C234.627 75.6107 235.831 76.1396 237.557 76.1396C240.73 76.1396 242.317 74.2598 242.317 70.5V55.2412H250.618V83H242.757ZM256.6 83V45.9883H264.9V83H256.6ZM291.756 83V79.9971H291.658C290.958 81.3317 289.795 82.349 288.167 83.0488C286.767 83.651 285.229 83.9521 283.553 83.9521C279.37 83.9521 275.976 82.5117 273.372 79.6309C270.866 76.8314 269.612 73.3239 269.612 69.1084C269.612 64.958 270.89 61.4749 273.445 58.6592C276.098 55.7458 279.467 54.2891 283.553 54.2891C285.213 54.2891 286.743 54.5983 288.143 55.2168C289.705 55.9004 290.877 56.8932 291.658 58.1953H291.756V55.2412H300.057V83H291.756ZM291.756 69.1084C291.756 67.0739 291.097 65.3893 289.778 64.0547C288.46 62.7201 286.792 62.0527 284.773 62.0527C282.771 62.0527 281.119 62.7526 279.817 64.1523C278.548 65.5033 277.913 67.1878 277.913 69.2061C277.913 71.1429 278.572 72.7868 279.891 74.1377C281.242 75.5049 282.885 76.1885 284.822 76.1885C286.824 76.1885 288.484 75.513 289.803 74.1621C291.105 72.8112 291.756 71.1266 291.756 69.1084ZM326.937 74.5039C326.937 77.4499 325.757 79.8018 323.396 81.5596C321.264 83.1546 318.676 83.9521 315.633 83.9521C312.605 83.9521 310.075 83.179 308.04 81.6328C305.875 79.9889 304.638 77.694 304.329 74.748H312.581C312.825 76.457 313.875 77.3115 315.73 77.3115C316.447 77.3115 317.09 77.1325 317.659 76.7744C318.31 76.3675 318.636 75.8223 318.636 75.1387C318.636 74.276 318.196 73.568 317.317 73.0146L316.097 72.4287L311.287 70.6953C309.35 69.9954 307.837 69.1247 306.746 68.083C305.363 66.7809 304.671 65.2347 304.671 63.4443C304.671 60.6937 305.794 58.4476 308.04 56.7061C310.107 55.0947 312.573 54.2891 315.438 54.2891C318.351 54.2891 320.752 55.0133 322.64 56.4619C324.674 58.0081 325.822 60.2054 326.082 63.0537H317.928C317.879 61.654 317.016 60.9541 315.34 60.9541C313.761 60.9541 312.972 61.5726 312.972 62.8096C312.972 63.7373 313.704 64.4941 315.169 65.0801C315.657 65.2917 316.398 65.5439 317.391 65.8369C317.472 65.8532 317.578 65.8776 317.708 65.9102L319.954 66.6182C320.947 66.9437 321.801 67.2855 322.518 67.6436C323.396 68.083 324.137 68.5876 324.739 69.1572C326.204 70.5081 326.937 72.2904 326.937 74.5039ZM360.75 54.2891V83H351.302V54.2891H344.002V45.9883H368.001V54.2891H360.75ZM394.563 69.4502C394.563 70.2477 394.498 70.9801 394.368 71.6475H373.567C374.088 75.1468 376.253 76.8965 380.062 76.8965C382.047 76.8965 383.732 76.0339 385.115 74.3086H393.611C392.374 77.1895 390.6 79.4844 388.289 81.1934C385.831 83 383.089 83.9033 380.062 83.9033C376.009 83.9033 372.55 82.4629 369.686 79.582C366.805 76.7174 365.364 73.2588 365.364 69.2061C365.364 65.137 366.772 61.6458 369.588 58.7324C372.436 55.7702 375.879 54.2891 379.915 54.2891C384.114 54.2891 387.622 55.7702 390.438 58.7324C393.188 61.6458 394.563 65.2184 394.563 69.4502ZM386.263 66.0566C385.579 62.8828 383.479 61.2959 379.964 61.2959C376.448 61.2959 374.349 62.8828 373.665 66.0566H386.263ZM420.003 74.5039C420.003 77.4499 418.823 79.8018 416.463 81.5596C414.331 83.1546 411.743 83.9521 408.699 83.9521C405.672 83.9521 403.141 83.179 401.106 81.6328C398.942 79.9889 397.705 77.694 397.396 74.748H405.647C405.892 76.457 406.941 77.3115 408.797 77.3115C409.513 77.3115 410.156 77.1325 410.726 76.7744C411.377 76.3675 411.702 75.8223 411.702 75.1387C411.702 74.276 411.263 73.568 410.384 73.0146L409.163 72.4287L404.354 70.6953C402.417 69.9954 400.903 69.1247 399.812 68.083C398.429 66.7809 397.737 65.2347 397.737 63.4443C397.737 60.6937 398.86 58.4476 401.106 56.7061C403.174 55.0947 405.639 54.2891 408.504 54.2891C411.417 54.2891 413.818 55.0133 415.706 56.4619C417.741 58.0081 418.888 60.2054 419.148 63.0537H410.994C410.945 61.654 410.083 60.9541 408.406 60.9541C406.827 60.9541 406.038 61.5726 406.038 62.8096C406.038 63.7373 406.771 64.4941 408.235 65.0801C408.724 65.2917 409.464 65.5439 410.457 65.8369C410.538 65.8532 410.644 65.8776 410.774 65.9102L413.021 66.6182C414.013 66.9437 414.868 67.2855 415.584 67.6436C416.463 68.083 417.203 68.5876 417.806 69.1572C419.271 70.5081 420.003 72.2904 420.003 74.5039ZM434.09 61.54V83H425.789V61.54H421.688V55.2412H425.789V45.9883H434.09V55.2412H438.094V61.54H434.09ZM459.065 83V67.8389C459.065 66.0322 458.805 64.6895 458.284 63.8105C457.617 62.6712 456.429 62.1016 454.72 62.1016C452.913 62.1016 451.635 62.6549 450.887 63.7617C450.268 64.6732 449.959 66.0566 449.959 67.9121V83H441.658V55.2412H449.397V58.1953H449.52C451.115 55.5911 453.629 54.2891 457.063 54.2891C459.879 54.2891 462.247 55.0947 464.168 56.7061C465.372 57.7152 466.235 59.0742 466.756 60.7832C467.163 62.1178 467.366 63.7373 467.366 65.6416V83H459.065ZM500.96 69.4502C500.96 70.2477 500.895 70.9801 500.765 71.6475H479.964C480.485 75.1468 482.649 76.8965 486.458 76.8965C488.444 76.8965 490.128 76.0339 491.512 74.3086H500.008C498.771 77.1895 496.997 79.4844 494.686 81.1934C492.228 83 489.485 83.9033 486.458 83.9033C482.405 83.9033 478.947 82.4629 476.082 79.582C473.201 76.7174 471.761 73.2588 471.761 69.2061C471.761 65.137 473.169 61.6458 475.984 58.7324C478.833 55.7702 482.275 54.2891 486.312 54.2891C490.511 54.2891 494.018 55.7702 496.834 58.7324C499.585 61.6458 500.96 65.2184 500.96 69.4502ZM492.659 66.0566C491.976 62.8828 489.876 61.2959 486.36 61.2959C482.845 61.2959 480.745 62.8828 480.062 66.0566H492.659ZM515.535 61.54V83H507.234V61.54H503.133V55.2412H507.234V45.9883H515.535V55.2412H519.539V61.54H515.535Z" fill="#20B486"/>
<defs>
<linearGradient id="paint0_linear_7685_9370" x1="53.0908" y1="59.9997" x2="96.6032" y2="59.9997" gradientUnits="userSpaceOnUse">
<stop stop-color="#07806D"/>
<stop offset="1" stop-color="#035663"/>
</linearGradient>
<clipPath id="clip0_7685_9370">
<rect width="97" height="120" fill="white"/>
</clipPath>
</defs>
</svg>
